<?xml version="1.0" encoding="UTF-8" standalone="no"?>
<!-- Uploaded to: SVG Repo, www.svgrepo.com, Generator: SVG Repo Mixer Tools -->

<svg
   width="800px"
   height="800px"
   viewBox="0 0 16 16"
   fill="none"
   version="1.1"
   id="svg2"
   sodipodi:docname="user-svgrepo-com.svg"
   xml:space="preserve"
   inkscape:version="1.4.2 (f4327f4, 2025-05-13)"
   xmlns:inkscape="http://www.inkscape.org/namespaces/inkscape"
   xmlns:sodipodi="http://sodipodi.sourceforge.net/DTD/sodipodi-0.dtd"
   xmlns="http://www.w3.org/2000/svg"
   xmlns:svg="http://www.w3.org/2000/svg"><defs
     id="defs2" /><sodipodi:namedview
     id="namedview2"
     pagecolor="#ffffff"
     bordercolor="#000000"
     borderopacity="0.25"
     inkscape:showpageshadow="2"
     inkscape:pageopacity="0.0"
     inkscape:pagecheckerboard="0"
     inkscape:deskcolor="#d1d1d1"
     showguides="false"
     inkscape:zoom="1.02"
     inkscape:cx="415.68627"
     inkscape:cy="373.52941"
     inkscape:window-width="1920"
     inkscape:window-height="1009"
     inkscape:window-x="-8"
     inkscape:window-y="-8"
     inkscape:window-maximized="1"
     inkscape:current-layer="svg2" /><g
     id="g1"
     transform="matrix(1.1428571,0,0,1.1428571,-1.1428571,-1.1428571)"
     style="stroke-width:0.875"><path
       id="rect3"
       style="fill:#000000;stroke:none;stroke-width:0.0826774;stroke-linecap:round;stroke-linejoin:round;paint-order:stroke fill markers"
       d="m 8,1 v 3 h 3 C 11,2.34315 9.65685,1 8,1 Z M 8,4 H 5 C 5,5.65685 6.34315,7 8,7 Z M 8,8.9999999 V 12 h 4 V 9.1707029 C 11.687224,9.0601589 11.350639,8.9999999 11,8.9999999 Z M 12,12 v 3 h 2 V 12 Z M 8,12 H 4 v 3 H 8 Z M 4,12 V 9.1707029 C 2.83481,9.5825299 2,10.693746 2,12 Z" /><path
       id="rect4"
       style="fill:#8a3785;fill-opacity:1;stroke:none;stroke-width:0.0826774;stroke-linecap:round;stroke-linejoin:round;paint-order:stroke fill markers"
       d="M 8,1 C 6.34315,1 5,2.34315 5,4 H 8 Z M 8,4 V 7 C 9.65685,7 11,5.65685 11,4 Z M 5,9 C 4.6493648,9 4.3127791,9.060154 4,9.1707031 V 12 H 8 V 9 Z m 3,3 v 3 h 4 v -3 z m 4,0 h 2 C 14,10.693738 13.165212,9.5825243 12,9.1707031 Z M 4,12 H 2 v 3 h 2 z" /></g></svg>
